# xmcd
#
# Track frame offsets:
#	150
#	15929
#	31698
#	53336
#
# Disc length: 993 seconds
# Revision: 0
# Processed by: cddbd v1.5.2PL0 Copyright (c) Steve Scherf et al.
# Submitted via: dBpowerAMP V12.0
#
DISCID=1803df04
DTITLE=Oliver Frank - Nichts als die Wahrheit (La Verità)
DYEAR=2005
DGENRE=Discofox
TTITLE0=Nichts als die Wahrheit (La Verità) (Radio Version)
TTITLE1=Nichts als die Wahrheit (La Verità) (Single Version)
TTITLE2=Nichts als die Wahrheit (La Verità) (Maxi Version)
TTITLE3=Nichts als die Wahrheit (La Verità) (Arena Remix)
EXTD=
EXTT0=
EXTT1=
EXTT2=
EXTT3=
PLAYORDER=
